<svg width="38" height="37" viewBox="0 0 38 37" fill="none" xmlns="http://www.w3.org/2000/svg">
<path d="M37 18.5C37 28.14 28.9664 36 19 36C9.03357 36 1 28.14 1 18.5C1 8.85999 9.03357 1 19 1C28.9664 1 37 8.85999 37 18.5Z" fill="white" stroke="#C4C4C4" stroke-width="2"/>
<g clip-path="url(#clip0_106_10406)">
<path d="M13.4185 14.8333L16.9443 10.915C17.0935 10.75 17.2892 10.6667 17.485 10.6667C17.9447 10.6667 18.25 11.0875 18.25 11.5242C18.25 11.7325 18.181 11.9442 18.0258 12.1167L15.5807 14.8333H13.4185ZM22.4193 14.8333H24.5815L21.0557 10.915C20.9065 10.75 20.7108 10.6667 20.515 10.6667C20.0553 10.6667 19.75 11.0875 19.75 11.5242C19.75 11.7325 19.819 11.9442 19.9742 12.1167L22.4193 14.8333ZM10 16.5V18.1667H10.4823C10.8827 18.1667 11.248 18.42 11.4243 18.82L14.5 27.3333H23.5L26.5765 18.8217C26.7512 18.4208 27.118 18.1667 27.5185 18.1667H28V16.5H10Z" fill="#C4C4C4"/>
</g>
<defs>
<clipPath id="clip0_106_10406">
<rect width="18" height="20" fill="white" transform="translate(10 9)"/>
</clipPath>
</defs>
</svg>
