<svg width="38" height="37" viewBox="0 0 38 37" fill="none" xmlns="http://www.w3.org/2000/svg">
<path d="M37 18.5C37 28.14 28.9664 36 19 36C9.03357 36 1 28.14 1 18.5C1 8.85999 9.03357 1 19 1C28.9664 1 37 8.85999 37 18.5Z" fill="white" stroke="#C4C4C4" stroke-width="2"/>
<path d="M29.7533 14.8965L18.7561 7.11256C18.5441 6.96248 18.256 6.96248 18.044 7.11256L7.0468 14.8965C6.77819 15.0867 6.71983 15.4513 6.91653 15.711C7.11323 15.9707 7.49045 16.027 7.75902 15.8369L18.4 8.30497L29.041 15.8369C29.1483 15.9129 29.273 15.9495 29.3967 15.9495C29.5823 15.9495 29.7654 15.8669 29.8835 15.7109C30.0802 15.4513 30.0219 15.0867 29.7533 14.8965Z" fill="#C4C4C4"/>
<path d="M26.8394 15.9688C26.5065 15.9688 26.2366 16.2297 26.2366 16.5515V25.8271H21.4144V20.7639C21.4144 19.1571 20.0622 17.85 18.4002 17.85C16.7382 17.85 15.386 19.1572 15.386 20.7639V25.8271H10.5637V16.5515C10.5637 16.2297 10.2938 15.9688 9.96094 15.9688C9.62808 15.9688 9.35815 16.2297 9.35815 16.5515V26.4099C9.35815 26.7318 9.62808 26.9927 9.96094 26.9927H15.9888C16.3058 26.9927 16.5652 26.7559 16.5892 26.4553C16.5907 26.4417 16.5916 26.4268 16.5916 26.4099V20.7639C16.5916 19.7998 17.4029 19.0155 18.4002 19.0155C19.3975 19.0155 20.2088 19.7999 20.2088 20.7639V26.4099C20.2088 26.4267 20.2097 26.4413 20.2111 26.4548C20.2349 26.7556 20.4944 26.9927 20.8116 26.9927H26.8394C27.1723 26.9927 27.4422 26.7318 27.4422 26.4099V16.5515C27.4422 16.2297 27.1723 15.9688 26.8394 15.9688Z" fill="#C4C4C4"/>
</svg>
