<svg width="46" height="45" viewBox="0 0 46 45" fill="none" xmlns="http://www.w3.org/2000/svg">
<g filter="url(#filter0_d_106_10321)">
<ellipse cx="23" cy="18.5" rx="19" ry="18.5" fill="white"/>
<path d="M41 18.5C41 28.14 32.9664 36 23 36C13.0336 36 5 28.14 5 18.5C5 8.85999 13.0336 1 23 1C32.9664 1 41 8.85999 41 18.5Z" stroke="#C4C4C4" stroke-width="2"/>
</g>
<g clip-path="url(#clip0_106_10321)">
<path d="M29.364 19.9289C28.3837 18.8398 27.217 18.0335 25.9439 17.5454C27.3074 16.502 28.2031 14.7558 28.2031 12.7812C28.2031 9.59348 25.869 7 23 7C20.131 7 17.7969 9.59348 17.7969 12.7812C17.7969 14.7558 18.6926 16.502 20.0561 17.5454C18.7831 18.0335 17.6163 18.8398 16.6361 19.9289C14.9362 21.8177 14 24.3289 14 27H15.4062C15.4062 22.3475 18.8128 18.5625 23 18.5625C27.1872 18.5625 30.5938 22.3475 30.5938 27H32C32 24.3289 31.0638 21.8177 29.364 19.9289ZM23 17C20.9064 17 19.2031 15.1075 19.2031 12.7812C19.2031 10.455 20.9064 8.5625 23 8.5625C25.0936 8.5625 26.7969 10.455 26.7969 12.7812C26.7969 15.1075 25.0936 17 23 17Z" fill="#C4C4C4"/>
</g>
<defs>
<filter id="filter0_d_106_10321" x="0" y="0" width="46" height="45" filterUnits="userSpaceOnUse" color-interpolation-filters="sRGB">
<feFlood flood-opacity="0" result="BackgroundImageFix"/>
<feColorMatrix in="SourceAlpha" type="matrix" values="0 0 0 0 0 0 0 0 0 0 0 0 0 0 0 0 0 0 127 0" result="hardAlpha"/>
<feOffset dy="4"/>
<feGaussianBlur stdDeviation="2"/>
<feColorMatrix type="matrix" values="0 0 0 0 0.945098 0 0 0 0 0.945098 0 0 0 0 0.94902 0 0 0 1 0"/>
<feBlend mode="normal" in2="BackgroundImageFix" result="effect1_dropShadow_106_10321"/>
<feBlend mode="normal" in="SourceGraphic" in2="effect1_dropShadow_106_10321" result="shape"/>
</filter>
<clipPath id="clip0_106_10321">
<rect width="18" height="20" fill="white" transform="translate(14 7)"/>
</clipPath>
</defs>
</svg>
